<?xml version="1.0" encoding="utf-8"?>
<!-- Generator: Adobe Illustrator 19.1.0, SVG Export Plug-In . SVG Version: 6.00 Build 0)  -->
<!DOCTYPE svg PUBLIC "-//W3C//DTD SVG 1.1//EN" "http://www.w3.org/Graphics/SVG/1.1/DTD/svg11.dtd">
<svg version="1.1" xmlns="http://www.w3.org/2000/svg" xmlns:xlink="http://www.w3.org/1999/xlink" x="0px" y="0px"
	 viewBox="0 0 120 120" style="enable-background:new 0 0 120 120;" xml:space="preserve">
<style type="text/css">
	.st0{fill:#FDBE23;}
	.st1{fill:none;stroke:#026699;stroke-width:7;stroke-miterlimit:10;}
	.st2{fill:#026699;}
	.st3{fill:none;stroke:#0E3253;stroke-width:7;stroke-miterlimit:10;}
	.st4{fill:none;stroke:#0E3253;stroke-width:4;stroke-miterlimit:10;}
	.st5{fill:#FFFFFF;}
	.st6{fill:#026699;stroke:#036699;stroke-width:7;stroke-miterlimit:10;}
	.st7{fill:#036699;stroke:#036699;stroke-width:4;stroke-miterlimit:10;}
	.st8{fill:none;stroke:#026699;stroke-width:4;stroke-miterlimit:10;}
	.st9{fill:none;stroke:#FDBE23;stroke-width:7;stroke-miterlimit:10;}
	.st10{fill:none;stroke:#FDBE23;stroke-width:4;stroke-miterlimit:10;}
	.st11{fill:#FDBE24;}
	.st12{fill:#0E3253;}
	.st13{fill:#036699;}
	.st14{fill:#FCBD21;}
	.st15{fill:#026699;stroke:#036699;stroke-width:4;stroke-miterlimit:10;}
	.st16{fill:none;stroke:#FCBD21;stroke-width:4;stroke-miterlimit:10;}
	.st17{fill:#FCBD21;stroke:#FCBD21;stroke-miterlimit:10;}
	.st18{fill:none;stroke:#5F6672;stroke-width:7;stroke-miterlimit:10;}
	.st19{fill:none;stroke:#FCBD21;stroke-width:7;stroke-miterlimit:10;}
	.st20{fill:none;stroke:#036699;stroke-width:4;stroke-miterlimit:10;}
	.st21{fill:#FDBE23;stroke:#FCBD21;stroke-width:3;stroke-miterlimit:10;}
	.st22{fill:#FFFFFF;stroke:#FDBE23;stroke-width:7;stroke-miterlimit:10;}
	.st23{fill:none;stroke:#FFFFFF;stroke-width:7;stroke-miterlimit:10;}
	.st24{fill:none;stroke:#FFFFFF;stroke-width:4;stroke-miterlimit:10;}
	.st25{fill:#FDFEFE;}
</style>
<g id="Layer_1">
	<g>
		<g>
			<path class="st2" d="M60.3,116.4C29.2,116.4,4,91.1,4,60C4,28.9,29.2,3.6,60.3,3.6s56.4,25.3,56.4,56.4
				C116.7,91.1,91.4,116.4,60.3,116.4z M60.3,10.6C33.1,10.6,11,32.8,11,60s22.1,49.4,49.4,49.4s49.4-22.1,49.4-49.4
				S87.5,10.6,60.3,10.6z"/>
		</g>
		<path class="st0" d="M91,39.6H29.2c-1.1,0-2,0.9-2,2v38.6c0,1.1,0.9,2,2,2H91c1.1,0,2-0.9,2-2V41.6C93,40.5,92.1,39.6,91,39.6z
			 M63.5,65.2c-0.2,0.2-0.4,0.3-0.6,0.5c-0.8,0.7-1.1,1-2.3,1h-0.6c-1.2,0-1.6-0.3-2.4-1c-0.2-0.1-0.3-0.3-0.5-0.4L34.2,43.6h52.4
			L63.5,65.2z M46.9,61L31.2,75.7V46.2L46.9,61z M49.8,63.8l4.7,4.4l0.1,0.1c0.2,0.1,0.3,0.3,0.4,0.4c1,0.9,2.3,2.1,5.1,2.1h0.6
			c2.7,0,4-1.1,5-2c0.2-0.1,0.3-0.3,0.5-0.4l4.7-4.5L86,78.2H34.5L49.8,63.8z M73.8,61.1L89,46.8v28.7L73.8,61.1z"/>
	</g>
</g>
<g id="Layer_2">
</g>
<g id="Isolation_Mode">
</g>
</svg>
