<?xml version="1.0" encoding="utf-8"?>
<!-- Generator: Adobe Illustrator 19.1.0, SVG Export Plug-In . SVG Version: 6.00 Build 0)  -->
<!DOCTYPE svg PUBLIC "-//W3C//DTD SVG 1.1//EN" "http://www.w3.org/Graphics/SVG/1.1/DTD/svg11.dtd">
<svg version="1.1" xmlns="http://www.w3.org/2000/svg" xmlns:xlink="http://www.w3.org/1999/xlink" x="0px" y="0px"
	 viewBox="0 0 120 120" style="enable-background:new 0 0 120 120;" xml:space="preserve">
<style type="text/css">
	.st0{fill:#FDBE23;}
	.st1{fill:none;stroke:#026699;stroke-width:7;stroke-miterlimit:10;}
	.st2{fill:#026699;}
	.st3{fill:none;stroke:#0E3253;stroke-width:7;stroke-miterlimit:10;}
	.st4{fill:none;stroke:#0E3253;stroke-width:4;stroke-miterlimit:10;}
	.st5{fill:#FFFFFF;}
	.st6{fill:#026699;stroke:#036699;stroke-width:7;stroke-miterlimit:10;}
	.st7{fill:#036699;stroke:#036699;stroke-width:4;stroke-miterlimit:10;}
	.st8{fill:none;stroke:#026699;stroke-width:4;stroke-miterlimit:10;}
	.st9{fill:none;stroke:#FDBE23;stroke-width:7;stroke-miterlimit:10;}
	.st10{fill:none;stroke:#FDBE23;stroke-width:4;stroke-miterlimit:10;}
	.st11{fill:#FDBE24;}
	.st12{fill:#0E3253;}
	.st13{fill:#036699;}
	.st14{fill:#FCBD21;}
	.st15{fill:#026699;stroke:#036699;stroke-width:4;stroke-miterlimit:10;}
	.st16{fill:none;stroke:#FCBD21;stroke-width:4;stroke-miterlimit:10;}
	.st17{fill:#FCBD21;stroke:#FCBD21;stroke-miterlimit:10;}
	.st18{fill:none;stroke:#5F6672;stroke-width:7;stroke-miterlimit:10;}
	.st19{fill:none;stroke:#FCBD21;stroke-width:7;stroke-miterlimit:10;}
	.st20{fill:none;stroke:#036699;stroke-width:4;stroke-miterlimit:10;}
	.st21{fill:#FDBE23;stroke:#FCBD21;stroke-width:3;stroke-miterlimit:10;}
	.st22{fill:#FFFFFF;stroke:#FDBE23;stroke-width:7;stroke-miterlimit:10;}
	.st23{fill:none;stroke:#FFFFFF;stroke-width:7;stroke-miterlimit:10;}
	.st24{fill:none;stroke:#FFFFFF;stroke-width:4;stroke-miterlimit:10;}
	.st25{fill:#FDFEFE;}
</style>
<g id="Layer_1">
	<g>
		<g>
			<path class="st2" d="M60,116.4C28.9,116.4,3.6,91.1,3.6,60C3.6,28.9,28.9,3.6,60,3.6c31.1,0,56.4,25.3,56.4,56.4
				C116.4,91.1,91.1,116.4,60,116.4z M60,10.6c-27.2,0-49.4,22.1-49.4,49.4s22.1,49.4,49.4,49.4s49.4-22.1,49.4-49.4
				S87.2,10.6,60,10.6z"/>
		</g>
		<path class="st0" d="M66.8,86.9c-15-6.6-26.4-16.9-32.4-32.4c-1-2.5-1.6-5.2-2-7.9c-0.6-3.5,0.2-6.9,2.6-9.5
			c1.9-2,4.1-3.9,6.5-5.3c2.5-1.4,3.6-1,4.9,1.3c1.9,3.4,4.1,6.7,6.1,10.1c1.1,1.8,1.1,2.6-0.5,4.1c-1.4,1.4-3.1,2.6-4.6,4
			c-1.8,1.6-2.1,2.3-1,4.5c1.2,2.2,2.6,4.5,4.2,6.3c4.4,4.9,9.5,8.9,14.9,12.5c2,1.3,2.8,1.2,4.4-0.7c1.1-1.3,2.2-2.8,3.3-4.1
			c1.6-1.9,2.6-2.1,4.7-0.8c3.5,2,6.8,4.1,10.4,6c1.6,0.9,1.8,2,1.3,3.6c-1.6,5.9-7.7,10.3-14.3,10.3C75.5,89,69.5,88.1,66.8,86.9z"
			/>
	</g>
</g>
<g id="Layer_2">
</g>
<g id="Isolation_Mode">
</g>
</svg>
